<?xml version="1.0" standalone="no"?>
<!DOCTYPE svg PUBLIC "-//W3C//DTD SVG 20010904//EN"
 "http://www.w3.org/TR/2001/REC-SVG-20010904/DTD/svg10.dtd">
<svg version="1.0" xmlns="http://www.w3.org/2000/svg"
 width="512.000000pt" height="512.000000pt" viewBox="0 0 512.000000 512.000000"
 preserveAspectRatio="xMidYMid meet">
<metadata>
Created by potrace 1.11, written by Peter Selinger 2001-2013
</metadata>
<g transform="translate(0.000000,512.000000) scale(0.100000,-0.100000)"
fill="#000000" stroke="none">
<path d="M2257 5085 c-359 -44 -726 -170 -1036 -358 -333 -201 -656 -530 -864
-881 -158 -268 -281 -609 -307 -856 -6 -52 -15 -135 -20 -185 -5 -49 -10 -160
-10 -245 0 -85 5 -195 10 -245 5 -49 14 -133 20 -185 26 -247 149 -588 307
-856 208 -351 531 -680 864 -881 232 -140 549 -267 797 -318 579 -120 1168
-46 1682 211 271 136 465 276 675 488 288 290 490 623 614 1009 77 244 106
452 106 777 0 325 -29 533 -106 777 -177 551 -534 1022 -1024 1347 -235 156
-589 305 -863 361 -259 54 -597 70 -845 40z"/>
</g>
</svg>
